<?xml version="1.0" encoding="UTF-8"?>
<svg xmlns="http://www.w3.org/2000/svg" width="3840" height="2160" viewBox="0 0 3840 2160" role="img" aria-label="ForgePlay 4K premium eastern game platform visual">
  <defs>
    <linearGradient id="bg" x1="0" x2="1" y1="0" y2="1">
      <stop offset="0%" stop-color="#07110f"/>
      <stop offset="46%" stop-color="#12251f"/>
      <stop offset="100%" stop-color="#391812"/>
    </linearGradient>
    <linearGradient id="gold" x1="0" x2="1">
      <stop offset="0%" stop-color="#9c6730"/>
      <stop offset="50%" stop-color="#f0d28b"/>
      <stop offset="100%" stop-color="#b8894f"/>
    </linearGradient>
    <radialGradient id="moon" cx="72%" cy="18%" r="36%">
      <stop offset="0%" stop-color="#fff8ea" stop-opacity=".34"/>
      <stop offset="42%" stop-color="#fff8ea" stop-opacity=".09"/>
      <stop offset="100%" stop-color="#fff8ea" stop-opacity="0"/>
    </radialGradient>
    <filter id="soft" x="-20%" y="-20%" width="140%" height="140%">
      <feGaussianBlur stdDeviation="28"/>
    </filter>
    <filter id="shadow" x="-20%" y="-20%" width="150%" height="150%">
      <feDropShadow dx="0" dy="46" stdDeviation="42" flood-color="#010503" flood-opacity=".48"/>
    </filter>
    <pattern id="grid" width="128" height="128" patternUnits="userSpaceOnUse">
      <path d="M128 0H0V128" fill="none" stroke="#fff8ea" stroke-opacity=".075" stroke-width="2"/>
    </pattern>
  </defs>
  <rect width="3840" height="2160" fill="url(#bg)"/>
  <rect width="3840" height="2160" fill="url(#grid)"/>
  <rect width="3840" height="2160" fill="url(#moon)"/>
  <path d="M0 1780C420 1584 742 1812 1128 1650c440-184 740 60 1120-116 420-196 716-422 1592-504v1130H0z" fill="#020f0d" opacity=".82"/>
  <path d="M-160 1624C380 1354 860 1710 1300 1456c520-300 934-28 1386-314 356-226 670-360 1312-374" fill="none" stroke="#fff8ea" stroke-opacity=".16" stroke-width="8"/>
  <path d="M170 1578c424-178 682-52 940-186 306-160 520-252 910-168 368 80 716-320 1450-488" fill="none" stroke="#76c8ad" stroke-opacity=".30" stroke-width="16"/>
  <g opacity=".58">
    <path d="M330 646c320-116 604-116 852 0" stroke="#fff8ea" stroke-opacity=".26" stroke-width="13" fill="none" stroke-linecap="round"/>
    <path d="M2480 376c248 92 462 82 642-30" stroke="#fff8ea" stroke-opacity=".22" stroke-width="12" fill="none" stroke-linecap="round"/>
    <path d="M236 1010c198-70 356-64 474 18" stroke="#d8b86c" stroke-opacity=".24" stroke-width="10" fill="none" stroke-linecap="round"/>
  </g>
  <g filter="url(#shadow)">
    <path d="M630 1568h2418c196 0 354 158 354 354H276c0-196 158-354 354-354z" fill="#06120f" opacity=".92"/>
    <path d="M770 1518h2140" stroke="url(#gold)" stroke-width="32" stroke-linecap="round"/>
    <path d="M1110 1512c72-360 326-580 760-662 454 100 720 322 798 662" fill="none" stroke="#76c8ad" stroke-opacity=".23" stroke-width="42"/>
    <path d="M830 1512c82-252 274-414 576-486 310 72 500 234 570 486" fill="none" stroke="#fff8ea" stroke-opacity=".19" stroke-width="36"/>
    <path d="M1390 1122h838l-124-108h-596z" fill="#d76145" opacity=".94"/>
    <path d="M1472 1010h678l-104-88h-470z" fill="#d8b86c" opacity=".82"/>
    <rect x="1514" y="1188" width="650" height="318" rx="20" fill="#10231e" opacity=".96"/>
    <rect x="1594" y="1282" width="204" height="128" rx="14" fill="#76c8ad" opacity=".48"/>
    <rect x="1866" y="1282" width="204" height="128" rx="14" fill="#d8b86c" opacity=".46"/>
    <path d="M1512 1508h654" stroke="#fff8ea" stroke-opacity=".16" stroke-width="10"/>
  </g>
  <g filter="url(#shadow)">
    <rect x="2560" y="612" width="680" height="430" rx="42" fill="#101814" opacity=".96"/>
    <rect x="2622" y="680" width="556" height="54" rx="27" fill="#76c8ad" opacity=".52"/>
    <rect x="2622" y="800" width="248" height="132" rx="24" fill="#d76145" opacity=".70"/>
    <rect x="2930" y="800" width="248" height="132" rx="24" fill="#d8b86c" opacity=".70"/>
    <path d="M2654 968h456" stroke="#fff8ea" stroke-opacity=".44" stroke-width="18" stroke-linecap="round"/>
  </g>
  <g opacity=".96">
    <circle cx="560" cy="510" r="16" fill="#d8b86c"/>
    <circle cx="3180" cy="404" r="22" fill="#76c8ad"/>
    <circle cx="3210" cy="1424" r="18" fill="#d76145"/>
    <circle cx="2050" cy="376" r="12" fill="#fff8ea"/>
  </g>
  <g transform="translate(260 260)">
    <text y="0" font-family="Inter, Segoe UI, sans-serif" font-size="86" font-weight="850" fill="#d8b86c" opacity=".98">FORGEPLAY</text>
    <text y="164" font-family="Inter, Segoe UI, sans-serif" font-size="188" font-weight="950" fill="#fff8ea">AI Game Forge</text>
    <text y="254" font-family="Inter, Segoe UI, sans-serif" font-size="64" font-weight="760" fill="#d3c7af">agent-generated playable games, manifests, sandbox runtime</text>
  </g>
</svg>