<svg xmlns="http://www.w3.org/2000/svg" viewBox="0 0 1200 720" role="img" aria-label="memory">
    
    <defs>
      <linearGradient id="memory-bg" x1="0" x2="1" y1="0" y2="1">
        <stop offset="0%" stop-color="#102a43"/>
        <stop offset="48%" stop-color="#0f766e"/>
        <stop offset="100%" stop-color="#fb7185"/>
      </linearGradient>
      <radialGradient id="memory-glow" cx="70%" cy="22%" r="74%">
        <stop offset="0%" stop-color="#ffffff" stop-opacity=".34"/>
        <stop offset="38%" stop-color="#ffffff" stop-opacity=".08"/>
        <stop offset="100%" stop-color="#ffffff" stop-opacity="0"/>
      </radialGradient>
      <filter id="memory-soft" x="-30%" y="-30%" width="160%" height="160%">
        <feGaussianBlur stdDeviation="18"/>
      </filter>
      <pattern id="memory-grid" width="64" height="64" patternUnits="userSpaceOnUse">
        <path d="M 64 0 L 0 0 0 64" fill="none" stroke="#ffffff" stroke-opacity=".08" stroke-width="1"/>
      </pattern>
      <filter id="memory-shadow" x="-20%" y="-20%" width="140%" height="150%">
        <feDropShadow dx="0" dy="18" stdDeviation="18" flood-color="#020617" flood-opacity=".35"/>
      </filter>
    </defs>
    <rect width="1200" height="720" fill="url(#memory-bg)"/>
    <rect width="1200" height="720" fill="url(#memory-grid)"/>
    <rect width="1200" height="720" fill="url(#memory-glow)"/>
    <circle cx="1000" cy="130" r="210" fill="#ffffff" opacity=".08" filter="url(#memory-soft)"/>
    <circle cx="188" cy="610" r="190" fill="#000000" opacity=".16" filter="url(#memory-soft)"/>
    
    <path d="M92 552 C250 456 410 620 580 520 C748 420 848 470 1042 344" fill="none" stroke="#d9f99d" stroke-opacity=".58" stroke-width="5"/>
    <path d="M0 612 C160 542 272 626 438 570 C592 518 754 588 916 518 C1052 460 1118 444 1200 462 L1200 720 L0 720 Z" fill="#052e2b" opacity=".72"/>
    <g opacity=".7">
      <path d="M154 646c28-82 74-122 138-142" stroke="#99f6e4" stroke-width="4" fill="none"/>
      <path d="M246 640c-6-84 26-148 96-194" stroke="#fde68a" stroke-width="4" fill="none"/>
      <path d="M884 646c18-98 74-168 168-214" stroke="#fda4af" stroke-width="4" fill="none"/>
    </g>
    
    <g transform="translate(176 210) rotate(-8)" filter="url(#memory-shadow)">
      <rect width="150" height="188" rx="22" fill="#fff7ed" opacity=".96"/>
      <rect x="14" y="14" width="122" height="160" rx="16" fill="#0f172a" opacity=".88"/>
      <path d="M12 48h80v84H12z" transform="translate(18 26)" fill="#f97316" opacity=".9"/>
      <path d="M28 142h94" stroke="#ffffff" stroke-opacity=".65" stroke-width="8" stroke-linecap="round"/>
    </g>
    <g transform="translate(332 152) rotate(7)" filter="url(#memory-shadow)">
      <rect width="150" height="188" rx="22" fill="#fff7ed" opacity=".96"/>
      <rect x="14" y="14" width="122" height="160" rx="16" fill="#0f172a" opacity=".88"/>
      <path d="M52 20l58 58-58 58-58-58z" transform="translate(18 26)" fill="#38bdf8" opacity=".9"/>
      <path d="M28 142h94" stroke="#ffffff" stroke-opacity=".65" stroke-width="8" stroke-linecap="round"/>
    </g>
    <g transform="translate(488 230) rotate(-3)" filter="url(#memory-shadow)">
      <rect width="150" height="188" rx="22" fill="#fff7ed" opacity=".96"/>
      <rect x="14" y="14" width="122" height="160" rx="16" fill="#0f172a" opacity=".88"/>
      <path d="M18 22h108v108H18z" transform="translate(18 26)" fill="#a78bfa" opacity=".9"/>
      <path d="M28 142h94" stroke="#ffffff" stroke-opacity=".65" stroke-width="8" stroke-linecap="round"/>
    </g>
    <g transform="translate(644 170) rotate(9)" filter="url(#memory-shadow)">
      <rect width="150" height="188" rx="22" fill="#fff7ed" opacity=".96"/>
      <rect x="14" y="14" width="122" height="160" rx="16" fill="#0f172a" opacity=".88"/>
      <path d="M70 18l56 104H14z" transform="translate(18 26)" fill="#facc15" opacity=".9"/>
      <path d="M28 142h94" stroke="#ffffff" stroke-opacity=".65" stroke-width="8" stroke-linecap="round"/>
    </g>
    <g transform="translate(818 284)" filter="url(#memory-shadow)">
      <rect x="0" y="0" width="216" height="176" rx="38" fill="#111827" opacity=".96"/>
      <rect x="30" y="38" width="58" height="44" rx="22" fill="#5eead4"/>
      <rect x="128" y="38" width="58" height="44" rx="22" fill="#fef08a"/>
      <path d="M66 118c28 22 58 22 86 0" stroke="#fda4af" stroke-width="10" fill="none" stroke-linecap="round"/>
      <path d="M108 -34v34" stroke="#e0f2fe" stroke-width="10" stroke-linecap="round"/>
      <circle cx="108" cy="-46" r="16" fill="#fb7185"/>
    </g>
    <g transform="translate(76 76)">
      <text y="0" font-family="Inter, Segoe UI, sans-serif" font-size="28" font-weight="800" fill="#ffffff" opacity=".92">MEMORY</text>
      <text y="42" font-family="Inter, Segoe UI, sans-serif" font-size="48" font-weight="900" fill="#ffffff">Neon Garden</text>
    </g>
    <rect x="0" y="0" width="1200" height="720" fill="none" stroke="#ffffff" stroke-opacity=".14" stroke-width="2"/>
  </svg>