<svg xmlns="http://www.w3.org/2000/svg" viewBox="0 0 1200 720" role="img" aria-label="reaction">
    
    <defs>
      <linearGradient id="reaction-bg" x1="0" x2="1" y1="0" y2="1">
        <stop offset="0%" stop-color="#1a1110"/>
        <stop offset="48%" stop-color="#7b2f24"/>
        <stop offset="100%" stop-color="#d8b86c"/>
      </linearGradient>
      <radialGradient id="reaction-glow" cx="70%" cy="22%" r="74%">
        <stop offset="0%" stop-color="#ffffff" stop-opacity=".34"/>
        <stop offset="38%" stop-color="#ffffff" stop-opacity=".08"/>
        <stop offset="100%" stop-color="#ffffff" stop-opacity="0"/>
      </radialGradient>
      <filter id="reaction-soft" x="-30%" y="-30%" width="160%" height="160%">
        <feGaussianBlur stdDeviation="18"/>
      </filter>
      <pattern id="reaction-grid" width="64" height="64" patternUnits="userSpaceOnUse">
        <path d="M 64 0 L 0 0 0 64" fill="none" stroke="#fff8ea" stroke-opacity=".08" stroke-width="1"/>
      </pattern>
      <filter id="reaction-shadow" x="-20%" y="-20%" width="140%" height="150%">
        <feDropShadow dx="0" dy="18" stdDeviation="18" flood-color="#020617" flood-opacity=".35"/>
      </filter>
    </defs>
    <rect width="1200" height="720" fill="url(#reaction-bg)"/>
    <rect width="1200" height="720" fill="url(#reaction-grid)"/>
    <rect width="1200" height="720" fill="url(#reaction-glow)"/>
    <circle cx="1000" cy="130" r="210" fill="#fff8ea" opacity=".08" filter="url(#reaction-soft)"/>
    <circle cx="188" cy="610" r="190" fill="#000000" opacity=".16" filter="url(#reaction-soft)"/>
    
    <path d="M120 534 L338 208 L642 482 L918 126 L1080 534 Z" fill="#020617" opacity=".42"/>
    <g transform="translate(134 426)" filter="url(#reaction-shadow)">
      <path d="M0 116h930c42 0 72 30 72 72H-72c0-42 30-72 72-72Z" fill="#0f172a" opacity=".94"/>
      <rect x="68" y="0" width="796" height="166" rx="34" fill="#18233d"/>
      <rect x="102" y="32" width="188" height="74" rx="14" fill="#0ea5e9" opacity=".42"/>
      <rect x="334" y="32" width="218" height="74" rx="14" fill="#d76145" opacity=".38"/>
      <rect x="596" y="32" width="226" height="74" rx="14" fill="#76c8ad" opacity=".38"/>
      <path d="M122 68h126M364 68h154M628 68h154" stroke="#fff8ea" stroke-opacity=".62" stroke-width="9" stroke-linecap="round"/>
      <circle cx="220" cy="134" r="18" fill="#fff0c8"/>
      <circle cx="466" cy="134" r="18" fill="#93c5fd"/>
      <circle cx="724" cy="134" r="18" fill="#fecaca"/>
    </g>
    <g filter="url(#reaction-shadow)">
      
    <circle cx="828" cy="330" r="90" fill="none" stroke="#76c8ad" stroke-opacity="0.86" stroke-width="16" stroke-dasharray="110 34"/>
    <circle cx="828" cy="330" r="142" fill="none" stroke="#d76145" stroke-opacity="0.72" stroke-width="14" stroke-dasharray="64 28"/>
    <circle cx="828" cy="330" r="194" fill="none" stroke="#d8b86c" stroke-opacity="0.58" stroke-width="12" stroke-dasharray="110 34"/>
    <circle cx="828" cy="330" r="246" fill="none" stroke="#ffffff" stroke-opacity="0.43999999999999995" stroke-width="10" stroke-dasharray="64 28"/>
      <circle cx="828" cy="330" r="72" fill="#fff0c8"/>
      <circle cx="828" cy="330" r="42" fill="#dc2626"/>
      <path d="M828 330 L896 192" stroke="#fff8ea" stroke-width="12" stroke-linecap="round"/>
    </g>
    <g opacity=".78">
      <path d="M206 184c126 42 250 40 374-6" stroke="#76c8ad" stroke-width="5" fill="none"/>
      <path d="M214 240c126 42 250 40 374-6" stroke="#fff0c8" stroke-width="5" fill="none"/>
      <path d="M214 296c126 42 250 40 374-6" stroke="#d76145" stroke-width="5" fill="none"/>
    </g>
    <g transform="translate(76 76)">
      <text y="0" font-family="Inter, Segoe UI, sans-serif" font-size="28" font-weight="800" fill="#fff8ea" opacity=".92">REACTION</text>
      <text y="42" font-family="Inter, Segoe UI, sans-serif" font-size="48" font-weight="900" fill="#fff8ea">Cinnabar Bridge</text>
    </g>
    <rect x="0" y="0" width="1200" height="720" fill="none" stroke="#fff8ea" stroke-opacity=".14" stroke-width="2"/>
  </svg>