<svg xmlns="http://www.w3.org/2000/svg" viewBox="0 0 1200 720" role="img" aria-label="shooter">
    
    <defs>
      <linearGradient id="shooter-bg" x1="0" x2="1" y1="0" y2="1">
        <stop offset="0%" stop-color="#081325"/>
        <stop offset="48%" stop-color="#285a8f"/>
        <stop offset="100%" stop-color="#f97364"/>
      </linearGradient>
      <radialGradient id="shooter-glow" cx="70%" cy="22%" r="74%">
        <stop offset="0%" stop-color="#ffffff" stop-opacity=".34"/>
        <stop offset="38%" stop-color="#ffffff" stop-opacity=".08"/>
        <stop offset="100%" stop-color="#ffffff" stop-opacity="0"/>
      </radialGradient>
      <filter id="shooter-soft" x="-30%" y="-30%" width="160%" height="160%">
        <feGaussianBlur stdDeviation="18"/>
      </filter>
      <pattern id="shooter-grid" width="64" height="64" patternUnits="userSpaceOnUse">
        <path d="M 64 0 L 0 0 0 64" fill="none" stroke="#fff8ea" stroke-opacity=".08" stroke-width="1"/>
      </pattern>
      <filter id="shooter-shadow" x="-20%" y="-20%" width="140%" height="150%">
        <feDropShadow dx="0" dy="18" stdDeviation="18" flood-color="#020617" flood-opacity=".35"/>
      </filter>
    </defs>
    <rect width="1200" height="720" fill="url(#shooter-bg)"/>
    <rect width="1200" height="720" fill="url(#shooter-grid)"/>
    <rect width="1200" height="720" fill="url(#shooter-glow)"/>
    <circle cx="1000" cy="130" r="210" fill="#fff8ea" opacity=".08" filter="url(#shooter-soft)"/>
    <circle cx="188" cy="610" r="190" fill="#000000" opacity=".16" filter="url(#shooter-soft)"/>
    
    <path d="M80 584 C240 492 382 616 538 518 C728 400 856 492 1056 310" fill="none" stroke="#67e8f9" stroke-opacity=".44" stroke-width="5"/>
    <g opacity=".62">
      <circle cx="160" cy="164" r="5" fill="#fff8ea"/><circle cx="390" cy="94" r="4" fill="#fff8ea"/><circle cx="1028" cy="136" r="6" fill="#fff8ea"/><circle cx="948" cy="520" r="4" fill="#fff8ea"/>
    </g>
    
    <g transform="translate(244 166) rotate(16)" filter="url(#shooter-shadow)">
      <path d="M0 0h86" stroke="#67e8f9" stroke-width="12" stroke-linecap="round"/>
      <circle cx="94" cy="0" r="17" fill="#67e8f9"/>
    </g>
    <g transform="translate(376 264) rotate(-12)" filter="url(#shooter-shadow)">
      <path d="M0 0h86" stroke="#facc15" stroke-width="12" stroke-linecap="round"/>
      <circle cx="94" cy="0" r="17" fill="#f97364"/>
    </g>
    <g transform="translate(508 362) rotate(16)" filter="url(#shooter-shadow)">
      <path d="M0 0h86" stroke="#67e8f9" stroke-width="12" stroke-linecap="round"/>
      <circle cx="94" cy="0" r="17" fill="#67e8f9"/>
    </g>
    <g transform="translate(640 166) rotate(-12)" filter="url(#shooter-shadow)">
      <path d="M0 0h86" stroke="#facc15" stroke-width="12" stroke-linecap="round"/>
      <circle cx="94" cy="0" r="17" fill="#f97364"/>
    </g>
    <g transform="translate(772 264) rotate(16)" filter="url(#shooter-shadow)">
      <path d="M0 0h86" stroke="#67e8f9" stroke-width="12" stroke-linecap="round"/>
      <circle cx="94" cy="0" r="17" fill="#67e8f9"/>
    </g>
    <g transform="translate(904 362) rotate(-12)" filter="url(#shooter-shadow)">
      <path d="M0 0h86" stroke="#facc15" stroke-width="12" stroke-linecap="round"/>
      <circle cx="94" cy="0" r="17" fill="#f97364"/>
    </g>
    <g transform="translate(332 356)" filter="url(#shooter-shadow)">
      <path d="M0 90 C124 2 286 -16 426 48 C332 164 166 212 10 162 Z" fill="#f8fafc" opacity=".96"/>
      <path d="M112 94 C194 44 274 38 352 72" stroke="#081325" stroke-opacity=".45" stroke-width="14" stroke-linecap="round" fill="none"/>
      <path d="M424 52l118-42l-48 108Z" fill="#f97364"/>
      <circle cx="176" cy="82" r="28" fill="#67e8f9"/>
      <path d="M-70 126c42-28 82-40 122-34" stroke="#facc15" stroke-width="14" stroke-linecap="round" fill="none"/>
    </g>
    <g filter="url(#shooter-shadow)">
      <rect x="914" y="396" width="118" height="118" rx="34" fill="#0f172a"/>
      <circle cx="973" cy="455" r="34" fill="#facc15"/>
      <path d="M946 455h54M973 428v54" stroke="#081325" stroke-width="9" stroke-linecap="round"/>
    </g>
    <g transform="translate(76 76)">
      <text y="0" font-family="Inter, Segoe UI, sans-serif" font-size="28" font-weight="800" fill="#fff8ea" opacity=".92">SHOOTER</text>
      <text y="42" font-family="Inter, Segoe UI, sans-serif" font-size="48" font-weight="900" fill="#fff8ea">Star Skiff</text>
    </g>
    <rect x="0" y="0" width="1200" height="720" fill="none" stroke="#fff8ea" stroke-opacity=".14" stroke-width="2"/>
  </svg>